# xmcd CD database file
#
# Track frame offsets:
#	150
#	16210
#	39702
#
# Disc length: 1035 seconds
#
# Revision: 0
# Processed by: cddbd v1.5.1PL2 Copyright (c) Steve Scherf et al.
# Submitted via: CDex 1.51
#
DISCID=1b040903
DTITLE=雅 -miyavi- - タリラリタララ♪
DYEAR=2003
DGENRE=Visual_Rock
TTITLE0=タリラリタララ♪
TTITLE1=死んでもBoogie-Woogie(唄ヤver!)
TTITLE2=POP is dead(激やver!)
EXTD=YEAR: 2003
EXTT0=
EXTT1=
EXTT2=
PLAYORDER=
